<svg xmlns:inkscape="http://www.inkscape.org/namespaces/inkscape" xmlns:sodipodi="http://sodipodi.sourceforge.net/DTD/sodipodi-0.dtd" xmlns:xlink="http://www.w3.org/1999/xlink" xmlns="http://www.w3.org/2000/svg" xmlns:svg="http://www.w3.org/2000/svg" version="1.1" id="svg5" xml:space="preserve" sodipodi:docname="обезьянка.svg" inkscape:version="1.2.1 (9c6d41e410, 2022-07-14)" viewBox="23.14 8.63 165.82 174.46"><sodipodi:namedview id="namedview7" pagecolor="#ffffff" bordercolor="#000000" borderopacity="0.25" inkscape:showpageshadow="2" inkscape:pageopacity="0.0" inkscape:pagecheckerboard="0" inkscape:deskcolor="#d1d1d1" inkscape:document-units="mm" showgrid="true" inkscape:zoom="0.70710678" inkscape:cx="447.59859" inkscape:cy="355.67471" inkscape:window-width="1920" inkscape:window-height="1001" inkscape:window-x="-9" inkscape:window-y="-9" inkscape:window-maximized="1" inkscape:current-layer="layer1"><inkscape:grid type="xygrid" id="grid40997"/></sodipodi:namedview><defs id="defs2"><linearGradient inkscape:collect="always" id="linearGradient27526"><stop style="stop-color:#b73d31;stop-opacity:1;" offset="0.14285715" id="stop28463"/><stop style="stop-color:#e5bb37;stop-opacity:1;" offset="0.14285715" id="stop28879"/><stop style="stop-color:#e5bb37;stop-opacity:1;" offset="0.39622641" id="stop27522"/><stop style="stop-color:#74512b;stop-opacity:1;" offset="0.39622641" id="stop27524"/></linearGradient><inkscape:path-effect effect="powerstroke" id="path-effect11471" is_visible="true" lpeversion="1" offset_points="0,4.3626785" not_jump="false" sort_points="true" interpolator_type="CubicBezierJohan" interpolator_beta="0.2" start_linecap_type="zerowidth" linejoin_type="extrp_arc" miter_limit="4" scale_width="1" end_linecap_type="zerowidth"/><inkscape:path-effect effect="powerstroke" id="path-effect7649" is_visible="true" lpeversion="1" offset_points="0,4.99" not_jump="false" sort_points="true" interpolator_type="CubicBezierJohan" interpolator_beta="0.2" start_linecap_type="zerowidth" linejoin_type="extrp_arc" miter_limit="4" scale_width="1" end_linecap_type="zerowidth"/><inkscape:path-effect effect="spiro" id="path-effect2981" is_visible="true" lpeversion="1"/><inkscape:path-effect effect="fill_between_many" method="bsplinespiro" linkedpaths="#path7647,0,1" id="path-effect7651"/><inkscape:path-effect effect="fill_between_many" method="bsplinespiro" linkedpaths="#path11469,0,1" id="path-effect11473"/><linearGradient inkscape:collect="always" xlink:href="#linearGradient27526" id="linearGradient27528" x1="81.836594" y1="182.35579" x2="81.836594" y2="62.002079" gradientUnits="userSpaceOnUse" spreadMethod="reflect"/></defs><g inkscape:label="Слой 1" inkscape:groupmode="layer" id="layer1"><g id="g3120" transform="translate(31.714378,1.8708866)"><rect style="fill:#b36c43;fill-opacity:1;fill-rule:evenodd;stroke:none;stroke-width:3.19181;stroke-linecap:round;stroke-linejoin:round;stroke-dasharray:none;stroke-opacity:1;paint-order:markers fill stroke" id="rect34341-6" width="24.167404" height="8.4666615" x="45.443211" y="171.44293" rx="3.7532709" ry="3.7041717"/><path id="rect31919-6-9" style="display:inline;fill:#84352d;fill-opacity:1;fill-rule:evenodd;stroke:none;stroke-width:1.31394;stroke-linecap:round;stroke-linejoin:round;stroke-dasharray:none;stroke-opacity:1;paint-order:markers fill stroke" d="m 62.32554,157.94547 c 6.3757,0 11.50832,4.90456 11.50832,10.99689 0,6.09232 -5.13262,10.99724 -11.50832,10.99724 -0.13564,0 -0.27064,-0.003 -0.40512,-0.008 v 0.0101 H 50.81687 v -10.99971 -0.44502 h 0.0101 c 0.24289,-5.88429 5.27881,-10.55186 11.49843,-10.55186 z"/><rect style="fill:url(#linearGradient27528);fill-opacity:1;fill-rule:evenodd;stroke:none;stroke-width:3.65936;stroke-linecap:round;stroke-linejoin:round;stroke-dasharray:none;stroke-opacity:1;paint-order:stroke fill markers" id="rect27103" width="43.391666" height="63.859192" x="58.243958" y="116.13328" ry="23.102722" rx="21.695833"/><path id="rect37568" style="fill:#000000;fill-opacity:1;fill-rule:evenodd;stroke:none;stroke-width:0.202078;stroke-linecap:round;stroke-linejoin:round;stroke-dasharray:none;stroke-opacity:1;paint-order:markers fill stroke" d="m 101.83443,137.20397 c -1.42021,0.1295 -2.413313,1.87948 -2.226928,3.92312 l 3.123198,34.25323 c 0.18633,2.04364 1.4795,3.58464 2.89972,3.45516 l 5.62644,-0.51302 c 1.4202,-0.1295 2.41336,-1.87896 2.22699,-3.92261 l -3.12318,-34.25323 c -0.18635,-2.04363 -1.47956,-3.58515 -2.89977,-3.45565 z m 19.39178,-1.76812 c -1.42021,0.1295 -2.41388,1.87901 -2.22757,3.92263 l 3.12323,34.25373 c 0.18633,2.04363 1.48002,3.58459 2.90022,3.45509 l 5.62593,-0.51296 c 1.42022,-0.1295 2.41387,-1.87901 2.22758,-3.92263 l -3.12323,-34.25374 c -0.18635,-2.04363 -1.48004,-3.58458 -2.90024,-3.45509 z"/><path style="display:inline;fill:#74512b;fill-opacity:1;fill-rule:evenodd;stroke:none;stroke-width:3.96422;stroke-linecap:round;stroke-linejoin:round;stroke-dasharray:none;stroke-opacity:1;paint-order:stroke fill markers" d="m 21.623683,71.460155 0.199703,27.314948 c -8.575501,1.870887 -30.401911,-3.623287 -30.401911,-22.076457 0,-21.939919 30.202208,-18.310327 30.202208,-5.238491 z" id="path15283" sodipodi:nodetypes="cccc"/><path id="path15283-87" style="display:inline;fill:#d4a16b;fill-opacity:1;fill-rule:evenodd;stroke:none;stroke-width:3.20645;stroke-linecap:round;stroke-linejoin:round;stroke-dasharray:none;stroke-opacity:1;paint-order:stroke fill markers" d="m 0.69743376,70.495393 c -1.1941048,1.194105 -2.44753636,3.800452 -2.44753636,6.507208 0,15.508392 16.7102546,15.442951 23.6665696,14.952227 l -0.1245,-14.765325 C 18.031867,66.22796 4.5003193,65.312729 0.69743376,70.495393 Z" sodipodi:nodetypes="csccc"/><path style="display:inline;fill:#74512b;fill-opacity:1;fill-rule:evenodd;stroke:none;stroke-width:3.96422;stroke-linecap:round;stroke-linejoin:round;stroke-dasharray:none;stroke-opacity:1;paint-order:stroke fill markers" d="m 114.82508,71.460232 -0.1997,27.314948 c 8.5755,1.87089 30.40191,-3.62329 30.40191,-22.076457 0,-21.939919 -30.20221,-18.310327 -30.20221,-5.238491 z" id="path15283-9" sodipodi:nodetypes="cccc"/><path id="path15283-87-3" style="display:inline;fill:#d4a16b;fill-opacity:1;fill-rule:evenodd;stroke:none;stroke-width:3.20645;stroke-linecap:round;stroke-linejoin:round;stroke-dasharray:none;stroke-opacity:1;paint-order:stroke fill markers" d="m 135.75133,70.49547 c 1.1941,1.194105 2.44754,3.800452 2.44754,6.507208 0,15.508392 -16.71026,15.442952 -23.66657,14.952222 l 0.1245,-14.76532 c 3.7601,-10.961543 17.29164,-11.876774 21.09453,-6.69411 z" sodipodi:nodetypes="csccc"/><ellipse style="display:inline;fill:#74512b;fill-opacity:1;stroke:none;stroke-width:0.665;stroke-linecap:square;stroke-opacity:1;paint-order:stroke fill markers" id="path477-9" cx="68.946121" cy="76.017715" rx="53.0355" ry="53.035717"/><path id="path477-9-1" style="display:inline;fill:#ffcd97;fill-opacity:1;stroke:none;stroke-width:0.665001;stroke-linecap:square;stroke-opacity:1;paint-order:stroke fill markers" d="M 92.284255 38.921972 C 78.843639 39.209475 65.334588 51.607087 62.864345 70.687992 C 56.879889 67.244408 48.71369 64.294067 41.648069 64.294067 C 32.168482 64.294067 23.878481 64.292617 16.300779 69.908195 A 53.035717 53.035717 0 0 0 15.911139 76.005497 C 15.91198 76.008825 16.125641 74.318444 15.911139 76.017899 L 15.911139 76.031852 L 15.911139 76.038053 A 53.035717 53.035717 0 0 0 27.457721 109.05258 C 27.459869 109.05527 27.461774 109.05815 27.463922 109.06084 C 27.477902 109.07834 27.492307 109.09554 27.506297 109.11304 C 27.513101 109.12155 27.520158 109.12985 27.526967 109.13836 A 53.035717 53.035717 0 0 0 30.000718 112.0126 C 30.002457 112.01448 30.004146 112.01641 30.005886 112.01829 C 30.051576 112.06769 30.097465 112.11689 30.143345 112.16608 A 53.035717 53.035717 0 0 0 32.798997 114.82173 C 32.848219 114.86757 32.897391 114.91348 32.946791 114.95919 C 32.94697 114.95936 32.947129 114.95954 32.947308 114.95971 A 53.035717 53.035717 0 0 0 35.810183 117.42364 C 35.824023 117.43473 35.837155 117.44668 35.851007 117.45775 C 35.868507 117.47175 35.88568 117.48612 35.9032 117.50012 C 35.910024 117.50556 35.917044 117.51071 35.923871 117.51614 A 53.035717 53.035717 0 0 0 38.986733 119.77595 C 39.043181 119.8146 39.099649 119.85328 39.156232 119.89171 A 53.035717 53.035717 0 0 0 42.399444 121.92983 C 42.425299 121.94478 42.451598 121.95884 42.477476 121.97375 A 53.035717 53.035717 0 0 0 45.844712 123.75349 C 45.901896 123.78116 45.959 123.80922 46.016278 123.83669 A 53.035717 53.035717 0 0 0 49.518907 125.36527 C 49.560463 125.38164 49.602367 125.39708 49.643963 125.41333 A 53.035717 53.035717 0 0 0 53.238059 126.67114 C 53.282196 126.68483 53.326178 126.6989 53.370351 126.71248 A 53.035717 53.035717 0 0 0 57.074001 127.70467 C 57.125972 127.71661 57.178053 127.72802 57.230064 127.73981 A 53.035717 53.035717 0 0 0 61.003477 128.45398 C 61.024172 128.45711 61.044788 128.46068 61.065489 128.46379 A 53.035717 53.035717 0 0 0 64.906081 128.89633 C 64.958793 128.90035 65.011476 128.90434 65.064211 128.90821 A 53.035717 53.035717 0 0 0 68.946144 129.05342 L 68.946661 129.05342 A 53.035717 53.035717 0 0 0 72.829112 128.90821 C 72.881482 128.90436 72.933859 128.90033 72.986208 128.89633 A 53.035717 53.035717 0 0 0 76.828867 128.46379 C 76.848196 128.46089 76.867421 128.45742 76.886745 128.45449 A 53.035717 53.035717 0 0 0 80.66791 127.73877 C 80.716601 127.72774 80.765498 127.71739 80.814154 127.70622 A 53.035717 53.035717 0 0 0 84.518321 126.71351 C 84.565622 126.69898 84.612654 126.68373 84.659914 126.66907 A 53.035717 53.035717 0 0 0 88.23954 125.41643 C 88.286469 125.3981 88.33374 125.38064 88.380617 125.36217 A 53.035717 53.035717 0 0 0 91.872394 123.83875 C 91.932283 123.81004 91.991923 123.78088 92.051711 123.75194 A 53.035717 53.035717 0 0 0 95.410162 121.97685 C 95.438644 121.96045 95.467492 121.94473 95.495945 121.92828 A 53.035717 53.035717 0 0 0 98.731407 119.89532 C 98.790778 119.85502 98.84995 119.81444 98.909173 119.77388 A 53.035717 53.035717 0 0 0 101.97927 117.50839 C 101.9834 117.5051 101.98755 117.50186 101.99167 117.49857 C 102.00807 117.48547 102.02437 117.4724 102.04077 117.4593 C 102.04287 117.45762 102.04486 117.45581 102.04697 117.45413 A 53.035717 53.035717 0 0 0 104.95687 114.94989 C 104.99917 114.91069 105.04127 114.87139 105.08347 114.83207 A 53.035717 53.035717 0 0 0 107.76083 112.15471 C 107.80013 112.11251 107.83953 112.07041 107.87865 112.0281 A 53.035717 53.035717 0 0 0 110.38806 109.112 C 110.39073 109.10866 110.39366 109.10553 110.39633 109.10218 C 110.40433 109.09168 110.41273 109.08116 110.42113 109.07066 C 110.42657 109.06384 110.43172 109.05682 110.43715 109.04999 A 53.035717 53.035717 0 0 0 112.70265 105.98093 C 112.7428 105.9223 112.78263 105.86349 112.82254 105.80471 A 53.035717 53.035717 0 0 0 114.86169 102.55995 C 114.87424 102.53824 114.88586 102.51605 114.89838 102.49432 A 53.035717 53.035717 0 0 0 116.68535 99.113647 C 116.71089 99.060857 116.73698 99.008387 116.76235 98.955517 A 53.035717 53.035717 0 0 0 118.29404 95.444104 C 118.30997 95.403628 118.32471 95.362662 118.34055 95.322147 A 53.035717 53.035717 0 0 0 119.59887 91.727535 C 119.61283 91.682519 119.6274 91.637713 119.64124 91.592659 A 53.035717 53.035717 0 0 0 120.63291 87.893143 C 120.64541 87.838776 120.65728 87.784257 120.6696 87.729846 A 53.035717 53.035717 0 0 0 121.38222 83.9616 C 121.38549 83.940038 121.38931 83.918573 121.39256 83.897005 A 53.035717 53.035717 0 0 0 121.82405 80.068298 C 121.82865 80.008361 121.8331 79.94843 121.83749 79.888464 A 53.035717 53.035717 0 0 0 121.98167 76.037536 C 121.98167 76.030814 121.98167 76.024105 121.98167 76.017382 C 121.98166 75.953578 121.97983 75.889964 121.9796 75.82618 A 53.035717 53.035717 0 0 0 121.96616 74.771464 C 121.96274 74.626146 121.95682 74.481023 121.95221 74.335831 A 53.035717 53.035717 0 0 0 121.92069 73.51521 C 121.91286 73.349525 121.90371 73.184092 121.89433 73.018599 A 53.035717 53.035717 0 0 0 121.84524 72.252754 C 121.8331 72.082199 121.8213 71.91148 121.80752 71.741158 A 53.035717 53.035717 0 0 0 121.73207 70.907617 C 121.71888 70.771405 121.70755 70.634901 121.69331 70.498856 A 53.035717 53.035717 0 0 0 121.55275 69.292212 C 121.53517 69.154715 121.51508 69.017651 121.49643 68.88035 A 53.035717 53.035717 0 0 0 121.38067 68.06903 C 121.35423 67.894703 121.32615 67.720561 121.29799 67.546582 A 53.035717 53.035717 0 0 0 121.17448 66.815877 C 121.14474 66.647119 121.11541 66.478365 121.08405 66.309965 A 53.035717 53.035717 0 0 0 120.93419 65.54412 C 120.90152 65.382005 120.87018 65.219599 120.836 65.057845 A 53.035717 53.035717 0 0 0 120.5833 63.921997 C 120.54543 63.760373 120.50434 63.59953 120.46496 63.438305 A 53.035717 53.035717 0 0 0 120.28461 62.716386 C 120.2353 62.526113 120.1841 62.336587 120.13268 62.146911 A 53.035717 53.035717 0 0 0 119.9606 61.526277 C 119.90528 61.331559 119.84916 61.136896 119.79162 60.94285 A 53.035717 53.035717 0 0 0 119.59732 60.306197 C 119.54037 60.12264 119.48469 59.938757 119.42575 59.755843 A 53.035717 53.035717 0 0 0 119.10329 58.788977 C 119.08807 58.744663 119.07419 58.699924 119.05885 58.655651 C 119.00229 58.49243 118.94182 58.330489 118.88366 58.167826 A 53.035717 53.035717 0 0 0 118.6413 57.498616 C 118.57499 57.320681 118.50644 57.143575 118.43821 56.966349 A 53.035717 53.035717 0 0 0 118.18345 56.316259 C 118.11349 56.141441 118.04288 55.966864 117.97106 55.792777 A 53.035717 53.035717 0 0 0 117.70131 55.15354 C 117.6273 54.980623 117.55444 54.807378 117.47858 54.635225 A 53.035717 53.035717 0 0 0 117.16491 53.941727 C 117.03265 53.652878 116.89777 53.365287 116.76028 53.078731 A 53.035717 53.035717 0 0 0 116.47089 52.480318 C 116.37856 52.293909 116.28329 52.108626 116.18874 51.923246 A 53.035717 53.035717 0 0 0 115.90142 51.366691 C 115.80482 51.182707 115.70721 50.999254 115.60841 50.816337 A 53.035717 53.035717 0 0 0 115.31644 50.284586 C 115.21057 50.093822 115.10484 49.903107 114.99656 49.713562 A 53.035717 53.035717 0 0 0 114.70873 49.219535 C 114.52748 48.910053 114.34348 48.602132 114.15579 48.296077 A 53.035717 53.035717 0 0 0 113.777 47.684228 C 113.66953 47.5142 113.55885 47.345672 113.44937 47.176766 A 53.035717 53.035717 0 0 0 113.10676 46.65225 C 112.9878 46.473382 112.86727 46.295464 112.74605 46.117915 A 53.035717 53.035717 0 0 0 112.40396 45.623372 C 112.28108 45.447707 112.15802 45.272136 112.03292 45.097823 A 53.035717 53.035717 0 0 0 111.67945 44.614131 C 111.55094 44.439266 111.42369 44.263573 111.29291 44.090132 C 111.06936 43.793659 110.84247 43.499205 110.61234 43.206982 C 106.47214 40.611981 101.49155 38.9652 92.284255 38.921972 z "/><rect style="fill:#000000;fill-opacity:1;fill-rule:evenodd;stroke:none;stroke-width:0.144529;stroke-linecap:round;stroke-linejoin:round;stroke-dasharray:none;stroke-opacity:1;paint-order:markers fill stroke" id="rect37621" width="40.719002" height="10.398" x="-39.075161" y="-179.36516" rx="1.7835214" ry="2.8020904" transform="rotate(-179.48218)"/></g><ellipse style="fill:#000000;fill-opacity:0;stroke-width:0.665001;stroke-linecap:square;stroke-opacity:0.708696;paint-order:stroke fill markers" id="path5050" cx="180.07285" cy="36.388744" rx="8.8867111" ry="11.318865"/><circle style="fill:#000000;fill-opacity:1;stroke:none;stroke-width:0.664394;stroke-linecap:square;stroke-opacity:1;paint-order:stroke fill markers" id="path5106" cx="125.09422" cy="83.969574" r="10.280475"/><circle style="fill:#fff3de;fill-opacity:1;stroke:none;stroke-width:0.205;stroke-linecap:square;stroke-dasharray:none;stroke-opacity:1;paint-order:stroke fill markers" id="path5106-5" cx="121.98182" cy="81.944832" r="3.1711051"/><path style="fill:none;fill-opacity:1;fill-rule:evenodd;stroke:#000000;stroke-width:3.837;stroke-linecap:round;stroke-linejoin:round;stroke-dasharray:none;stroke-opacity:1;paint-order:stroke fill markers" id="path7773" sodipodi:type="arc" sodipodi:cx="49.276463" sodipodi:cy="109.40006" sodipodi:rx="8.8321676" sodipodi:ry="8.8055477" sodipodi:start="3.6335765" sodipodi:end="0" sodipodi:arc-type="arc" d="m 41.491812,105.24054 a 8.8321676,8.8055477 0 0 1 9.935447,-4.38095 8.8321676,8.8055477 0 0 1 6.681371,8.54047" sodipodi:open="true" transform="rotate(-15.204482)"/><path style="fill:none;fill-opacity:1;fill-rule:evenodd;stroke:#583817;stroke-width:3.837;stroke-linecap:round;stroke-linejoin:round;stroke-dasharray:none;stroke-opacity:1;paint-order:stroke fill markers" id="path7773-4" sodipodi:type="arc" sodipodi:cx="-7.6452689" sodipodi:cy="86.908669" sodipodi:rx="9.6521015" sodipodi:ry="9.9799957" sodipodi:start="3.6335765" sodipodi:end="0" sodipodi:arc-type="arc" d="m -16.152607,82.194364 a 9.6521015,9.9799957 0 0 1 10.8578034,-4.965256 9.6521015,9.9799957 0 0 1 7.3016362,9.679561" transform="matrix(-0.33497325,0.94222764,0.94222764,0.33497325,0,0)" sodipodi:open="true"/><path style="fill:none;fill-opacity:1;fill-rule:evenodd;stroke:#583817;stroke-width:3.837;stroke-linecap:round;stroke-linejoin:round;stroke-dasharray:none;stroke-opacity:1;paint-order:stroke fill markers" id="path7773-4-4" sodipodi:type="arc" sodipodi:cx="-73.126678" sodipodi:cy="63.103916" sodipodi:rx="6.925529" sodipodi:ry="5.774086" sodipodi:start="3.6106192" sodipodi:end="0" sodipodi:arc-type="arc" d="m -79.304311,60.493924 a 6.925529,5.774086 0 0 1 7.786915,-3.006043 6.925529,5.774086 0 0 1 5.316247,5.616035" sodipodi:open="true" transform="matrix(-0.90156534,0.43264296,0.43264296,0.90156534,0,0)"/><g id="g12349" transform="translate(31.243808,5.61266)"><path style="fill:none;fill-opacity:1;fill-rule:evenodd;stroke:#000000;stroke-width:3.837;stroke-linecap:round;stroke-linejoin:round;stroke-dasharray:none;stroke-opacity:1;paint-order:stroke fill markers" id="path7773-1" sodipodi:type="arc" sodipodi:cx="-56.901398" sodipodi:cy="103.75067" sodipodi:rx="8.8321676" sodipodi:ry="6.4780278" sodipodi:start="5.5914497" sodipodi:end="0" sodipodi:arc-type="arc" d="m -50.099391,99.618501 a 8.8321676,6.4780278 0 0 1 2.030161,4.132169" sodipodi:open="true" transform="rotate(-58.760095)"/><path style="fill:none;fill-opacity:1;fill-rule:evenodd;stroke:#000000;stroke-width:3.837;stroke-linecap:round;stroke-linejoin:round;stroke-dasharray:none;stroke-opacity:1;paint-order:stroke fill markers" id="path7773-1-7" sodipodi:type="arc" sodipodi:cx="-84.812363" sodipodi:cy="92.152649" sodipodi:rx="8.8321676" sodipodi:ry="6.4780278" sodipodi:start="5.5914497" sodipodi:end="0" sodipodi:arc-type="arc" d="m -78.010356,88.020478 a 8.8321676,6.4780278 0 0 1 2.030161,4.132171" sodipodi:open="true" transform="rotate(-77.992159)"/></g><path style="display:inline;fill:none;fill-opacity:1;fill-rule:nonzero;stroke:none;stroke-width:0.132;stroke-linecap:round;stroke-linejoin:round;stroke-dasharray:none;stroke-opacity:1;paint-order:stroke fill markers" d="m 76.116606,107.32304 c 7.776922,0 22.316794,0 37.738434,0 -0.20281,0.37065 -0.41463,0.74992 -0.63499,1.13522 -1.17148,2.04838 -2.54642,4.21207 -4.08128,6.2331 -1.60136,2.10858 -3.27994,3.93379 -4.98568,5.32249 -0.87807,0.71487 -1.73162,1.28811 -2.5546,1.72478 -0.84843,0.45017 -1.646257,0.74572 -2.395145,0.91177 -0.77282,0.17134 -1.516043,0.21011 -2.247564,0.12522 -0.768909,-0.0892 -1.583298,-0.32197 -2.454762,-0.74632 -0.932865,-0.45425 -1.934236,-1.13009 -2.995204,-2.08083 -1.146205,-1.02712 -2.318555,-2.33626 -3.50545,-3.93831 -2.856682,-3.85589 -5.485823,-8.98266 -7.85097,-14.71401 z m -4.032789,-2.69847 c 2.496552,6.04977 5.446116,11.91013 8.90563,16.57971 1.458565,1.96874 3.019055,3.74186 4.693405,5.24226 1.554217,1.39274 3.217912,2.56059 4.998225,3.4275 1.684088,0.82005 3.445463,1.35718 5.268937,1.56878 1.73811,0.20169 3.459787,0.099 5.142026,-0.27393 1.61022,-0.35702 3.1449,-0.9527 4.59605,-1.72266 1.40188,-0.74383 2.72692,-1.65079 3.97381,-2.66592 2.39495,-1.94982 4.5429,-4.33289 6.42551,-6.81181 1.8183,-2.39424 3.39848,-4.89086 4.7068,-7.17849 2.5397,-4.44074 4.028,-8.06293 4.07665,-8.18222 l 2.45101,-6.010109 h -6.49068 c -17.88583,0 -35.771667,0 -44.714584,0 z" id="path11469" inkscape:path-effect="#path-effect11471" inkscape:original-d="m 76.116606,102.96036 h 44.714584 c 0,0 -22.225001,54.49792 -44.714584,0 z" inkscape:linked-fill="path11475"/><path style="display:inline;fill:#fff3de;fill-opacity:1;fill-rule:evenodd;stroke:#000000;stroke-width:5.037;stroke-linecap:round;stroke-linejoin:round;stroke-dasharray:none;stroke-opacity:1;paint-order:stroke fill markers" d="m 75.620243,105.8557 h 46.362177 c 0,0 1.27178,24.04821 -22.660816,24.04821 -23.932595,0 -23.701361,-24.04821 -23.701361,-24.04821 z" id="path12301" sodipodi:nodetypes="ccsc"/><path id="path12301-8" style="display:inline;fill:#000000;fill-opacity:1;fill-rule:evenodd;stroke:none;stroke-width:0.239;stroke-linecap:round;stroke-linejoin:round;stroke-dasharray:none;stroke-opacity:1;paint-order:stroke fill markers" d="m 84.114483,105.85564 v 19.24275 c 1.1244,0.91646 2.395159,1.74546 3.836975,2.44533 v -21.68808 z m 13.00024,0 v 23.97683 c 0.711822,0.0469 1.446839,0.0713 2.206583,0.0713 0.556967,0 1.100384,-0.0128 1.630384,-0.0382 v -24.0099 z m 12.999717,0 v 21.91494 c 1.44784,-0.67009 2.72011,-1.47169 3.83749,-2.36627 v -19.54867 z"/><rect style="fill:#c3935c;fill-opacity:1;fill-rule:evenodd;stroke:none;stroke-width:2.68155;stroke-linecap:round;stroke-linejoin:round;stroke-dasharray:none;stroke-opacity:1;paint-order:markers fill stroke" id="rect34341" width="17.058035" height="8.4666615" x="89.312248" y="173.28603" rx="2.6491644" ry="3.7041717"/><path id="rect31919-6" style="display:inline;fill:#b73d31;fill-opacity:1;fill-rule:evenodd;stroke:none;stroke-width:1.32722;stroke-linecap:round;stroke-linejoin:round;stroke-dasharray:none;stroke-opacity:1;paint-order:markers fill stroke" d="m 108.25246,159.81602 c 6.50526,0 11.74217,4.90456 11.74217,10.99689 0,6.09232 -5.23691,10.99724 -11.74217,10.99724 -0.13839,0 -0.27614,-0.003 -0.41335,-0.008 v 0.0101 H 96.509925 v -10.99971 -0.44502 h 0.01031 c 0.247826,-5.88429 5.386085,-10.55186 11.732095,-10.55186 z"/><path id="rect37473" style="fill:#000000;fill-opacity:1;fill-rule:evenodd;stroke:none;stroke-width:0.205;stroke-linecap:round;stroke-linejoin:round;stroke-dasharray:none;stroke-opacity:1;paint-order:markers fill stroke" d="m 67.470322,113.58973 c -1.325458,-0.63017 -3.102141,0.3544 -3.983271,2.20771 l -6.041088,12.70645 -12.030199,-5.71958 c -1.853313,-0.88113 -3.852557,-0.52358 -4.482722,0.80185 l -1.420297,2.98736 c -0.630167,1.32546 0.354401,3.10214 2.207713,3.98328 l 12.0302,5.71957 -5.558925,11.69229 c -0.881129,1.85332 -0.523157,3.85279 0.802299,4.48296 l 2.987367,1.42029 c 1.325458,0.63017 3.101675,-0.35462 3.982805,-2.20794 l 5.558926,-11.6923 12.368561,5.88044 c 1.853312,0.88113 3.852779,0.52311 4.482939,-0.80229 l 1.420299,-2.98737 c 0.630171,-1.32547 -0.354621,-3.10169 -2.207933,-3.98281 l -12.368561,-5.88045 6.041088,-12.70645 c 0.881128,-1.85331 0.523629,-3.85254 -0.801835,-4.48271 z"/><circle style="fill:#b36c43;fill-opacity:1;fill-rule:evenodd;stroke:none;stroke-width:2.43619;stroke-linecap:round;stroke-linejoin:round;stroke-dasharray:none;stroke-opacity:1;paint-order:markers fill stroke" id="path35561" r="7.4835463" cy="142.93575" cx="77.080528"/><circle style="fill:#b36c43;fill-opacity:1;fill-rule:evenodd;stroke:none;stroke-width:2.43619;stroke-linecap:round;stroke-linejoin:round;stroke-dasharray:none;stroke-opacity:1;paint-order:markers fill stroke" id="path35561-5" r="7.4835463" cy="127.2203" cx="44.527103"/><circle style="fill:#000000;fill-opacity:1;fill-rule:evenodd;stroke:none;stroke-width:0.205;stroke-linecap:round;stroke-linejoin:round;stroke-dasharray:none;stroke-opacity:1;paint-order:markers fill stroke" id="path37623" cx="57.679165" cy="163.51248" r="7.9375"/><circle style="fill:#000000;fill-opacity:1;fill-rule:evenodd;stroke:none;stroke-width:0.205;stroke-linecap:round;stroke-linejoin:round;stroke-dasharray:none;stroke-opacity:1;paint-order:markers fill stroke" id="path37623-3" cx="123.825" cy="175.15416" r="7.9375"/></g></svg>